<svg width="32" height="32" viewBox="0 0 32 32" fill="none" xmlns="http://www.w3.org/2000/svg">
<g clip-path="url(#clip0_2258_7240)">
<path d="M28.281 11.7467C28.281 11.7467 28.281 11.6533 28.2543 11.6133L25.7743 5.78668C25.401 4.90668 24.521 4.34668 23.5343 4.34668H8.4543C7.46763 4.34668 6.58763 4.92001 6.2143 5.80001L3.7343 11.6267C3.72096 11.6667 3.72096 11.72 3.70763 11.76C3.68096 11.84 3.6543 11.9333 3.6543 12.0133V24.0133C3.6543 26.04 5.3743 27.68 7.4943 27.68H24.4943C26.601 27.68 28.3343 26.04 28.3343 24.0133V12.0133C28.3343 11.9333 28.3076 11.84 28.281 11.76V11.7467ZM8.06763 6.56001C8.12096 6.42668 8.28096 6.33335 8.46763 6.33335H23.5476C23.721 6.33335 23.881 6.42668 23.9476 6.56001L25.8276 11H20.2543C19.7076 11 19.2543 11.4533 19.2543 12V15H12.7476V12C12.7476 11.4533 12.2943 11 11.7476 11H6.1743L8.0543 6.56001H8.06763ZM26.3343 24C26.3343 24.92 25.5076 25.6667 24.4943 25.6667H7.4943C6.48096 25.6667 5.6543 24.92 5.6543 24V13H10.7343V16C10.7343 16.5467 11.1876 17 11.7343 17H20.241C20.7876 17 21.241 16.5467 21.241 16V13H26.321V24H26.3343Z" fill="#333333"/>
</g>
<defs>
<clipPath id="clip0_2258_7240">
<rect width="32" height="32" fill="white"/>
</clipPath>
</defs>
</svg>
