<svg width="16" height="16" viewBox="0 0 16 16" fill="none" xmlns="http://www.w3.org/2000/svg">
<g clip-path="url(#clip0_564_26741)">
<path d="M12.6667 3.16666H3.33333C2.32 3.16666 1.5 3.98666 1.5 4.99999V11C1.5 12.0133 2.32 12.8333 3.33333 12.8333H12.6667C13.68 12.8333 14.5 12.0133 14.5 11V4.99999C14.5 3.98666 13.68 3.16666 12.6667 3.16666ZM12.28 5.74666L8.28 8.41332C8.19333 8.46666 8.1 8.49999 8 8.49999C7.9 8.49999 7.80667 8.47332 7.72 8.41332L3.72 5.74666L4.27333 4.91332L7.99333 7.39332L11.7133 4.91332L12.2667 5.74666H12.28Z" fill="#919191"/>
</g>
<defs>
<clipPath id="clip0_564_26741">
<rect width="16" height="16" fill="white"/>
</clipPath>
</defs>
</svg>
